Coordinates
version=1
nRows=16
nColumns=36
inDegrees=yes

Units are S.I. units (second, meters, Newtons, ...)
If the header above contains a line with 'inDegrees', this indicates whether rotational values are in degrees (yes) or radians (no).

endheader
time	pelvis_tilt	pelvis_list	pelvis_rotation	pelvis_tx	pelvis_ty	pelvis_tz	hip_flexion_r	hip_adduction_r	hip_rotation_r	knee_angle_r	knee_angle_r_beta	ankle_angle_r	subtalar_angle_r	mtp_angle_r	hip_flexion_l	hip_adduction_l	hip_rotation_l	knee_angle_l	knee_angle_l_beta	ankle_angle_l	subtalar_angle_l	mtp_angle_l	lumbar_extension	lumbar_bending	lumbar_rotation	arm_flex_r	arm_add_r	arm_rot_r	elbow_flex_r	pro_sup_r	arm_flex_l	arm_add_l	arm_rot_l	elbow_flex_l	pro_sup_l
      0.00000000	      1.97780646	     -0.49014559	      0.69471890	     -0.76740918	      1.33768187	     -0.07086781	     -3.58484957	      1.05177453	      8.53740424	      8.11403658	      0.14161665	     -0.27521363	    -19.23886015	     -6.29835192	     -4.36406460	     -1.91285119	      5.97147380	      6.81980438	      0.11902804	      9.95663124	     -3.90346976	     -6.29835192	    -15.49425299	      0.12707080	      0.72020539	      4.07365703	     -6.07979222	     14.16988784	     24.93701918	     73.10975579	      0.47869284	     -9.55858468	     10.95254518	     28.42598559	     69.22725463
      0.01666670	     -2.03112480	     -0.94306747	     -0.11565998	     -0.76396714	      1.33229312	     -0.07066787	      1.18604291	      1.60405782	     10.14546734	      9.13549424	      0.15944445	      2.50216817	    -15.88255969	     -6.82023201	      0.42333049	     -1.83847125	      7.32159898	      7.21673990	      0.12595587	      8.90310296	     -3.28396963	     -6.82023201	     -9.56456442	      0.80283656	      0.95532145	      2.45948733	     -5.15637299	      9.17262541	     24.11979659	     78.65571481	     -2.39976405	     -7.85112560	      1.99394685	     27.47687765	     73.15092805
      0.03333330	     -2.47901265	     -0.80074557	     -0.57878892	     -0.76955632	      1.33066293	     -0.07468576	      1.56803842	      1.08861277	     10.04711745	      8.59339611	      0.14998306	      2.79479910	    -15.80784991	     -6.82213273	      1.09380201	     -1.72455062	      7.09485306	      7.09402496	      0.12381409	      8.12657055	     -3.03126437	     -6.82213273	     -9.61250407	      0.51620095	      1.13696212	      2.69459178	     -5.09694065	      9.05342369	     24.33084513	     78.61609023	     -2.49348369	     -8.07362084	      1.99078821	     27.52417618	     73.16796268
      0.05000000	     -2.72415774	     -0.65957429	     -1.06798694	     -0.76348142	      1.33253716	     -0.06930952	      1.89131299	      0.87881822	      9.75252103	      8.59731517	      0.15005146	      4.08062920	    -13.74543305	     -6.85568777	      0.71494186	     -1.71388765	      7.05822662	      6.20178382	      0.10824155	      7.30801072	     -3.26034107	     -6.85568777	     -9.20093276	      0.01470429	      1.55625028	      1.46142909	     -4.83498365	      6.97356535	     25.55894328	     77.67802078	     -3.54004125	     -8.91267194	      2.47538094	     28.32031940	     73.75130193
      0.06666670	     -2.86365492	     -0.69843649	     -1.70990802	     -0.76933983	      1.33173943	     -0.07339137	      2.41290018	      0.91604122	      9.98667989	      9.00209128	      0.15711613	      4.49691648	    -13.75579261	     -6.86176811	      0.80501146	     -1.63454369	      6.91735362	      5.98238670	      0.10441235	      7.30616646	     -3.52239515	     -6.86176811	     -9.56618054	      0.06320139	      1.58805651	      1.49476485	     -5.07587282	      6.82468575	     26.19788286	     77.57331137	     -3.84788928	     -8.96066631	      2.74386069	     28.42892421	     73.93203342
      0.08333330	     -3.07954963	     -0.57257976	     -2.01812099	     -0.76972707	      1.33125836	     -0.07213979	      2.94705769	      0.81636825	     10.16590219	      9.26716973	      0.16174262	      5.02029682	    -13.70256134	     -6.98255108	      1.19018884	     -1.49049380	      6.93471366	      6.09577125	      0.10639128	      7.46338647	     -4.59070757	     -6.98255108	     -9.81535180	     -0.19287057	      1.91701503	      0.74286577	     -5.39024969	      6.43840404	     27.90198765	     75.86580996	     -3.86890354	     -9.35526499	      4.22303663	     28.54901853	     74.81143392
      0.10000000	     -3.44763511	     -0.49322135	     -2.23247922	     -0.76973482	      1.33012738	     -0.07280870	      3.56682293	      0.72699207	     10.19609618	      9.52316031	      0.16621050	      5.35887236	    -13.74257663	     -7.02750496	      1.87498046	     -1.35853451	      6.90245882	      6.46918322	      0.11290855	      7.87188783	     -5.32524124	     -7.02750496	     -9.97884672	     -0.31705904	      1.84310618	      0.50144998	     -5.57975220	      6.66516184	     28.34619876	     74.85011258	     -4.08015784	     -9.38749880	      4.15292136	     28.41178342	     74.12290680
      0.11666670	     -3.98260969	     -0.41398912	     -2.59688530	     -0.77623405	      1.32945551	     -0.07587633	      4.68003116	      0.60772065	     10.31108534	     10.09008850	      0.17610527	      5.65046906	    -13.81136212	     -7.04606557	      3.00602736	     -1.14449251	      6.90673539	      7.13126110	      0.12446399	      8.26274202	     -6.41658543	     -7.04606557	    -10.13586202	     -0.28831507	      1.95469030	      0.63253128	     -6.30056344	      7.37070342	     28.05804772	     75.09970345	     -3.79273033	     -9.28571498	      4.43389640	     27.87011989	     74.94411720
      0.13333330	     -4.31939985	     -0.31679631	     -2.78962981	     -0.77569355	      1.32892576	     -0.07628221	      5.39729945	      0.46190878	     10.36031179	     10.44553880	      0.18230904	      5.75067686	    -13.89052298	     -7.09684748	      3.87428017	     -0.95861643	      6.78277014	      7.90271832	      0.13792845	      8.72960615	     -7.09104794	     -7.09684748	    -10.59395736	     -0.31528012	      1.96894000	      0.47582592	     -6.95505345	      7.31448702	     27.87489817	     73.76383295	     -3.78101076	     -9.38039532	      4.32402205	     28.16094448	     73.93324606
      0.15000000	     -5.25395452	     -0.21859900	     -3.02324387	     -0.78191553	      1.32090066	     -0.07903753	      7.04646729	      0.32921802	     10.63724433	     11.26270063	      0.19657121	      5.95995206	    -14.25142615	     -7.10873066	      5.67671810	     -0.72801065	      6.84119059	      9.08586070	      0.15857818	      9.07957473	     -8.39660295	     -7.10873066	    -10.30648107	     -0.28311677	      1.97279393	      0.20210740	     -7.81952049	      8.31638112	     27.93829078	     73.78444563	     -4.04924123	     -9.51756537	      4.65211569	     28.04187494	     74.84245850
      0.16666670	     -6.28046995	     -0.13594907	     -3.06434506	     -0.78681396	      1.32023716	     -0.07487935	      8.81854901	      0.31630262	     10.65548690	     12.05245379	      0.21035500	      6.29569374	    -14.30728150	     -7.11775783	      7.63734780	     -0.59240388	      6.86081963	     10.21430972	      0.17827334	      9.55944078	     -9.16451936	     -7.11775783	    -10.06195249	     -0.26806014	      1.86622010	     -0.44840408	     -8.64510161	      8.62772177	     29.12378240	     73.99221617	     -4.58453863	     -9.99250393	      4.38035067	     28.63791154	     75.32090918
      0.18333330	     -7.47637768	     -0.06026539	     -3.03980641	     -0.79210793	      1.32286873	     -0.07810404	     11.06075458	      0.33865456	     10.57508939	     13.21548683	      0.23065376	      6.38438596	    -14.60474254	     -7.12883009	      9.88945349	     -0.43038632	      7.02920707	     11.51066836	      0.20089906	      9.76600837	    -10.08725368	     -7.12883009	     -9.74874791	     -0.24868228	      1.78563551	     -1.65208742	     -9.28812701	      9.17654181	     30.40084270	     74.29179913	     -5.20095984	    -10.36424167	      3.65568524	     29.03759736	     75.79118238
      0.20000000	     -8.42977510	      0.04142851	     -2.83136504	     -0.79084979	      1.32118886	     -0.07881744	     12.96952848	      0.30370067	     10.27455698	     14.41808807	      0.25164311	      6.45275385	    -14.69371408	     -7.14148664	     11.85780111	     -0.21614999	      7.27972381	     12.86671125	      0.22456648	      9.89579688	    -10.84218696	     -7.14148664	     -9.73565766	     -0.26839505	      1.57751367	     -2.77066699	     -9.97099525	      9.59266972	     31.64932370	     74.63599885	     -5.84530735	    -10.70006069	      2.50016502	     29.56289384	     76.19175013
      0.21666670	     -9.46308827	      0.19592066	     -2.72800957	     -0.79054824	      1.30924421	     -0.07724505	     15.13282353	      0.25424058	     10.02055959	     16.02027888	      0.27960661	      6.87879384	    -14.73779337	     -7.16919112	     13.98045156	     -0.03486780	      7.15035467	     14.30661158	      0.24969748	     10.39601071	    -11.25919630	     -7.16919112	     -9.60718402	     -0.42942810	      1.35792448	     -4.51881557	    -10.62723847	      9.95454139	     33.08260999	     74.42913548	     -6.96898810	    -11.03361118	      1.56203494	     30.59860591	     75.84770233
      0.23333330	    -10.49820363	      0.31615346	     -2.69378411	     -0.78942093	      1.30468614	     -0.07776897	     17.28352302	      0.19109710	      9.86641407	     17.78509289	      0.31040843	      7.21320827	    -14.87464342	     -7.22161517	     15.92432186	      0.09085526	      7.19859502	     15.68132411	      0.27369074	     10.79807717	    -11.76398152	     -7.22161517	     -9.43497757	     -0.53059601	      0.94237427	     -6.31898793	    -11.18177425	     10.68107381	     33.84209550	     73.72575956	     -7.99908547	    -11.22186413	      0.12532677	     31.03230672	     74.75624541
      0.25000000	    -11.45501859	      0.48980353	     -2.66652442	     -0.79525492	      1.30448084	     -0.08071138	     19.42189814	      0.01219396	      9.73366377	     19.53634828	      0.34097360	      7.75277861	    -14.80519209	     -7.22746667	     17.98331844	      0.34189177	      7.10049054	     17.15092893	      0.29934018	     11.10539210	    -12.18662419	     -7.22746667	     -9.71156812	     -0.59204790	      0.93659725	     -7.75545886	    -11.85811076	     11.06086992	     34.48767772	     74.03453412	     -8.43749022	    -11.29407027	     -0.36695175	     31.59924401	     74.83293442
